<svg width="40" height="40" viewBox="0 0 40 40" fill="none" xmlns="http://www.w3.org/2000/svg">
<path d="M35 27.7033V12.2971C34.9988 12.0745 34.939 11.8562 34.8265 11.6642C34.714 11.4722 34.5529 11.3132 34.3594 11.2033L20.6094 3.46895C20.4241 3.36198 20.2139 3.30566 20 3.30566C19.7861 3.30566 19.5759 3.36198 19.3906 3.46895L5.64062 11.2033C5.44711 11.3132 5.28599 11.4722 5.17352 11.6642C5.06105 11.8562 5.0012 12.0745 5 12.2971V27.7033C5.0012 27.9259 5.06105 28.1441 5.17352 28.3362C5.28599 28.5282 5.44711 28.6872 5.64062 28.7971L19.3906 36.5314C19.5759 36.6384 19.7861 36.6947 20 36.6947C20.2139 36.6947 20.4241 36.6384 20.6094 36.5314L34.3594 28.7971C34.5529 28.6872 34.714 28.5282 34.8265 28.3362C34.939 28.1441 34.9988 27.9259 35 27.7033V27.7033Z" stroke="#191C1F" stroke-width="1.5" stroke-linecap="round" stroke-linejoin="round"/>
<path d="M27.6562 23.8281V15.7031L12.5 7.34375" stroke="#191C1F" stroke-width="1.5" stroke-linecap="round" stroke-linejoin="round"/>
<path d="M34.8281 11.6562L20.1406 20L5.17188 11.6562" stroke="#191C1F" stroke-width="1.5" stroke-linecap="round" stroke-linejoin="round"/>
<path d="M20.1406 20L20 36.6875" stroke="#191C1F" stroke-width="1.5" stroke-linecap="round" stroke-linejoin="round"/>
</svg>
